<?xml version="1.0" standalone="no"?>
<!DOCTYPE svg PUBLIC "-//W3C//DTD SVG 20010904//EN"
 "http://www.w3.org/TR/2001/REC-SVG-20010904/DTD/svg10.dtd">
<svg version="1.0" xmlns="http://www.w3.org/2000/svg"
 width="512.000000pt" height="512.000000pt" viewBox="0 0 512.000000 512.000000"
 preserveAspectRatio="xMidYMid meet">

<g transform="translate(0.000000,512.000000) scale(0.100000,-0.100000)"
fill="#000000" stroke="none">
<path d="M1445 4600 c-174 -35 -329 -163 -386 -321 l-22 -59 -224 0 -225 0
-33 -33 c-61 -61 -53 -154 17 -197 30 -18 50 -20 249 -20 l216 0 22 -57 c120
-313 510 -427 781 -227 72 53 142 144 171 225 l22 59 1241 0 c1227 0 1241 0
1274 20 70 43 78 136 17 197 l-33 33 -1251 0 c-1009 0 -1251 2 -1251 13 0 7
-16 46 -35 86 -97 202 -335 324 -550 281z m206 -140 c219 -68 328 -317 230
-526 -54 -115 -154 -191 -284 -215 -251 -46 -484 187 -438 438 43 235 268 373
492 303z"/>
<path d="M3453 3055 c-154 -42 -300 -175 -349 -319 l-16 -46 -1237 0 c-1178 0
-1238 -1 -1270 -18 -38 -20 -71 -73 -71 -112 0 -39 33 -92 71 -112 32 -17 92
-18 1270 -18 l1237 0 16 -46 c23 -67 68 -133 134 -196 156 -149 378 -180 581
-82 101 50 223 193 251 294 l6 25 227 5 227 5 36 36 c64 64 52 159 -27 201
-30 16 -59 18 -247 18 -194 0 -213 2 -218 18 -3 9 -18 44 -32 77 -33 72 -143
188 -218 227 -105 56 -257 73 -371 43z m299 -153 c74 -36 143 -105 178 -176
91 -188 11 -415 -178 -508 -62 -31 -74 -33 -167 -33 -89 0 -107 3 -162 29 -77
35 -153 113 -191 193 -23 50 -27 71 -27 153 0 82 4 103 27 152 46 99 143 185
248 219 14 5 66 7 115 6 80 -2 98 -6 157 -35z"/>
<path d="M2520 1534 c-148 -22 -230 -61 -321 -153 -59 -59 -104 -132 -132
-213 -6 -17 -50 -18 -734 -18 -713 0 -729 -1 -761 -20 -70 -43 -78 -136 -17
-197 l33 -33 736 0 c693 0 737 -1 742 -17 26 -82 79 -166 143 -225 79 -75 147
-112 246 -133 88 -18 122 -18 210 0 99 21 167 58 246 133 64 59 117 143 143
225 5 16 49 17 742 17 l736 0 33 33 c61 61 53 154 -17 197 -32 19 -48 20 -761
20 -684 0 -728 1 -734 18 -45 130 -142 248 -250 305 -87 44 -212 71 -283 61z
m170 -149 c98 -33 191 -128 230 -232 31 -84 26 -204 -14 -290 -35 -77 -113
-153 -193 -191 -51 -23 -70 -27 -153 -26 -81 0 -103 4 -153 26 -80 37 -158
114 -193 191 -26 55 -29 73 -29 162 0 87 3 107 26 156 86 182 291 270 479 204z"/>
</g>
</svg>
